<?xml version="1.0" encoding="utf-8"?>
<!-- Generator: Adobe Illustrator 22.1.0, SVG Export Plug-In . SVG Version: 6.00 Build 0)  -->
<svg version="1.1" id="Layer_1" xmlns="http://www.w3.org/2000/svg" xmlns:xlink="http://www.w3.org/1999/xlink" x="0px" y="0px"
	 viewBox="0 0 186 82" style="enable-background:new 0 0 186 82;" xml:space="preserve">
<style type="text/css">
	.st0{fill:#FFFFFF;}
</style>
<title>Artboard 1</title>
<polygon class="st0" points="178.9,56.6 178.9,57.1 10.5,57.1 10.5,56.6 178.9,56.6 "/>
<polygon class="st0" points="10.9,49.6 10.9,64.5 10.4,64.5 10.4,49.6 10.9,49.6 "/>
<path class="st0" d="M120.5,39.2c-0.5-1.5,0.8-3.3,3.9-4.4c2-0.8,4.2-0.4,5.8,1.1c-0.1,2.2-1.7,4-3.9,4.4
	C123.7,40.7,122.2,37.8,120.5,39.2z"/>
<path class="st0" d="M155.6,56.2c0.1,0.2,0.4,0.4,0.7,0.4l-0.3,0.1h-10.1l-0.7-0.1c0.3,0,0.6-0.2,0.7-0.5c0-0.3,0.1-0.6,0.1-1.3
	c0-1.8,0.2-3.7,0.5-5.5c-3.4-6-9.2-9.6-13.9-12.8c-2.1-1.4-0.4-3.2,1.6-2.4c4.6,2,8.8,4.8,12.4,8.3c0.1,0.1,0.3,0.1,0.4,0.1
	c0.3,0,0.6-0.2,0.7-0.5c0.1-1,0.2-2,0.2-3.1v-0.5c-0.9-6.3-3.7-10-7.3-14.9c-1.1-1.5,1.1-3,2.3-1.5s4.2,3.7,6.2,8.6
	c0.1,0.2,0.4,0.3,0.6,0.3c0.2,0,0.4-0.1,0.6-0.2c1.7-3,3.9-5.7,6.5-8c0.5-0.6,1.4-0.8,2-0.3c0.6,0.4,0.7,1.2,0.4,1.8
	c-3.6,3.9-6.9,8.3-6.3,13.7c0,0.4,0.4,0.7,0.7,0.7c0.1,0,0.3,0,0.4-0.1c3.7-3.3,7.8-4.9,12.7-6.8c0.7-0.3,1.6,0.1,1.9,0.8
	c0.3,0.7-0.1,1.6-0.8,1.9l0,0c-5.4,2.1-12.4,8.3-13.7,11.7c0.7,2.8,1.1,5.6,1.1,8.4C155.2,55,155.4,55.6,155.6,56.2L155.6,56.2z"/>
<path class="st0" d="M176.1,23.1c-1.1-1.1-3.3-0.8-5.7,1.5c-1.6,1.4-2.3,3.6-1.7,5.6c2,0.9,4.4,0.3,5.7-1.5
	C176,26.6,174,23.9,176.1,23.1z"/>
<path class="st0" d="M180.1,33.4c-0.1-1.6-2.1-2.7-5.3-2.4c-2.1,0.1-4,1.4-4.8,3.3c1,2,3.2,3,5.3,2.4C177.8,36,178,32.7,180.1,33.4z
	"/>
<path class="st0" d="M169.8,23.4c-0.4-1.5-2.5-2.3-5.7-1.5c-2.1,0.4-3.7,2-4.3,4c1.3,1.8,3.6,2.4,5.6,1.5
	C167.9,26.3,167.6,23,169.8,23.4z"/>
<path class="st0" d="M161.9,11.8c1.6,0.2,2.5,2.2,2,5.5c-0.2,2.1-1.6,3.9-3.6,4.6c-1.9-1.1-2.7-3.4-2-5.5
	C159.1,13.9,162.4,14,161.9,11.8z"/>
<path class="st0" d="M149,13.9c1.2-1.1,3.3-0.6,5.6,1.8c1.5,1.5,2.1,3.7,1.4,5.7c-2,0.8-4.4,0-5.6-1.8C149,17.4,151,14.8,149,13.9z"
	/>
<path class="st0" d="M144.7,10.9c1,0.6,1.9,2,2.3,4.3c0.5,2.1-0.3,4.2-2,5.5c-2.1-0.5-3.6-2.4-3.6-4.6c0.1-2.5,2.9-3.5,2.2-5.2
	H144.7z"/>
<path class="st0" d="M133.5,24.2c1.5-0.5,3.3,0.8,4.4,3.9c0.8,2,0.4,4.2-1.1,5.8c-2.2-0.1-4-1.7-4.4-3.9
	C132.1,27.4,135,25.9,133.5,24.2z"/>
<path class="st0" d="M122.3,26.1c0.9-1.3,3.2-1.2,5.8,0.7c1.8,1.2,2.7,3.2,2.4,5.3c-1.9,1.2-4.3,0.9-5.8-0.7
	C122.9,29.5,124.5,26.6,122.3,26.1z"/>
<path class="st0" d="M130.2,19.8c0-1.6,1.8-2.9,5.1-3c2.1-0.1,4.1,0.9,5.2,2.8c-0.8,2.1-2.9,3.3-5.1,3
	C132.8,22.1,132.3,18.9,130.2,19.8z"/>
<path class="st0" d="M18.1,55.4c0,0.8-0.5,0.7-1,0.8s-0.8,0.1-0.8,0.4s0.3,0.2,0.4,0.2c0.8-0.1,1.6-0.1,2.4-0.1h5.1
	c0.2,0,0.4-0.1,0.4-0.4l0.4-1.8c0-0.1,0.1-0.2,0.1-0.3s0-0.2-0.2-0.2c-0.3,0-0.2,0.5-1.1,1.5c-0.4,0.4-0.8,0.6-2,0.6
	c-2.1,0-2.2-0.1-2.2-0.9v-3.5c0-0.4,0.1-0.5,1-0.5c2.2,0,2.4,0.1,2.5,1.1c0.1,0.5,0.1,0.8,0.4,0.8s0.2-0.2,0.2-0.3
	c0-0.5-0.1-1-0.1-1.8s0.1-1.1,0.1-1.5c0-0.2,0-0.4-0.3-0.4c-0.5,0,0,1.6-1.4,1.6h-1.6c-0.6,0-0.9,0-0.9-0.4v-3.1
	c0-0.6,0.1-0.8,0.8-0.8c3.1,0,3.2,0.3,3.4,0.9s0.2,0.8,0.5,0.8s0.1,0,0.1-0.1v-1.7c0-0.4,0-0.6-0.3-0.6c-1.5,0-4.1,0.1-4.6,0.1
	s-1.9-0.1-2.6-0.1c-0.3,0-0.5,0-0.5,0.2s0.2,0.2,0.8,0.4s0.9,0.2,0.9,0.7C18.1,47,18.1,55.4,18.1,55.4z"/>
<path class="st0" d="M27.2,55c0,0.9-0.2,1.2-0.7,1.3c-0.1,0-0.3,0.1-0.3,0.2s0.5,0.2,0.6,0.2c0.4,0,0.7-0.1,1.3-0.1s1.1,0.1,1.3,0.1
	l0,0c0.2,0,0.4,0,0.4-0.2s-0.3-0.2-0.5-0.2c-0.8-0.1-0.8-0.5-0.8-1.1v-2.8c0-0.4,0-0.8,0-1.3c0.5-0.6,1.2-0.9,2-0.8
	c1.4,0,1.5,1.2,1.5,2v3c0,1-0.4,1-0.9,1.1c-0.1,0-0.3,0.1-0.3,0.2s0.1,0.2,0.4,0.2c0.4,0,0.8-0.1,1.3-0.1s0.9,0.1,1.4,0.1
	c0.3,0,0.4,0,0.4-0.2s-0.4-0.2-0.6-0.2c-0.5-0.1-0.5-0.4-0.5-0.8v-3.4c0-0.8,0-2.6-2.4-2.6c-0.9,0-1.7,0.4-2.3,0.9v-0.9
	c0-0.2-0.1-0.2-0.2-0.2s-0.7,0.6-1.1,1s-0.7,0.4-0.7,0.6c0,0.4,0.8,0,0.8,1L27.2,55L27.2,55z"/>
<path class="st0" d="M40.9,51.1c0.4-1,1.3-0.8,1.3-1.1c0-0.1,0-0.2-0.3-0.2h-1c-0.4,0-0.9,0-1.3,0s-0.3,0-0.3,0.2s1,0.2,1,0.6
	c0,0.1,0,0.2,0,0.3L39,54.6c0,0.1-0.1,0.2-0.2,0.2c-0.1,0-0.2-0.1-0.2-0.2l-1.4-3.5c-0.1-0.2-0.1-0.3-0.1-0.5c0-0.5,1.2-0.2,1.2-0.5
	c0-0.1,0-0.2-0.3-0.2c-0.5,0-1,0-1.5,0h-1.5c-0.5,0-0.5,0-0.5,0.2c0,0.3,0.8,0.2,1,0.7l2.8,6.1c0,0.1,0.1,0.2,0.2,0.2
	s0.2-0.1,0.2-0.2L40.9,51.1L40.9,51.1z"/>
<path class="st0" d="M45.1,50.6c0-0.3,0.1-0.6,0.1-0.9c0-0.1,0-0.1-0.1-0.1s-0.2,0.1-1.1,0.7c-0.5,0.3-1,0.2-1,0.5s0.9,0.1,0.9,0.7
	v3.9c0,0.7-0.3,0.9-1,1c-0.3,0-0.3,0.2-0.3,0.2s0.2,0.2,0.3,0.2c0.5,0,1-0.1,1.5-0.1s0.9,0.1,1.4,0.1c0.2,0,0.5,0,0.5-0.2
	s-0.3-0.2-0.4-0.2c-0.5-0.2-0.7-0.1-0.7-0.7L45.1,50.6L45.1,50.6z M44.5,45.6c-0.4,0-0.8,0.4-0.8,0.8c0,0.4,0.3,0.8,0.8,0.8
	c0.4,0,0.8-0.3,0.8-0.8C45.3,46,44.9,45.6,44.5,45.6C44.5,45.6,44.5,45.6,44.5,45.6z"/>
<path class="st0" d="M49.5,51.9c0-0.5,0.2-1.1,0.8-1.1c0.4,0,0.8,0.4,1.2,0.4c0.5,0,0.9-0.3,0.9-0.7c0,0,0-0.1,0-0.1
	c0-0.7-0.7-0.8-1-0.8c-0.9,0-1.6,0.9-1.8,0.9s-0.1-0.2-0.1-0.5v-0.5c0-0.1-0.1-0.2-0.2-0.2c0,0,0,0,0,0c-0.2,0-0.5,0.5-1,0.9
	c-0.3,0.3-0.7,0.4-0.7,0.5c0,0.3,0.7,0.2,0.7,1.3v2.8c0,1.3-0.3,1.3-1,1.5c-0.1,0-0.1,0.1-0.1,0.2c0,0.2,0.3,0.2,0.4,0.2
	c0.6,0,1.1-0.1,1.7-0.1s1.1,0.1,1.6,0.1c0.2,0,0.4,0,0.4-0.2c0-0.1-0.1-0.2-0.2-0.2c0,0,0,0,0,0c-1.3,0-1.5-0.3-1.5-0.9V51.9z"/>
<path class="st0" d="M56.2,56.6c-1.3,0-2.2-1.8-2.2-3.2c0-2,0.8-3.4,2.2-3.4s2.2,1.8,2.2,3.2C58.4,55.2,57.6,56.6,56.2,56.6z
	 M56.2,49.6c-1.9-0.1-3.5,1.5-3.6,3.4c0,0.1,0,0.3,0,0.4c0,1.9,1,3.7,3.5,3.7c1.9,0.1,3.5-1.5,3.6-3.4c0-0.1,0-0.3,0-0.4
	C59.8,51.3,58.2,49.7,56.2,49.6z"/>
<path class="st0" d="M61.5,55c0,0.9-0.2,1.2-0.7,1.3c-0.1,0-0.3,0.1-0.3,0.2s0.5,0.2,0.6,0.2c0.4,0,0.7-0.1,1.3-0.1s1.1,0.1,1.3,0.1
	l0,0c0.2,0,0.4,0,0.4-0.2s-0.3-0.2-0.5-0.2c-0.8-0.1-0.8-0.5-0.8-1.1v-2.8c0-0.4,0-0.8,0-1.3c0.5-0.6,1.2-0.9,2-0.8
	c1.4,0,1.5,1.2,1.5,2v3c0,1-0.4,1-0.9,1.1c-0.1,0-0.2,0.1-0.2,0.2s0.1,0.2,0.4,0.2c0.4,0,0.8-0.1,1.3-0.1c0.4,0,0.9,0.1,1.4,0.1
	c0.2,0,0.4,0,0.4-0.2s-0.4-0.2-0.6-0.2c-0.5-0.1-0.5-0.4-0.5-0.8v-3.4c0-0.8,0-2.6-2.4-2.6c-0.9,0-1.7,0.4-2.3,0.9v-0.9
	c0-0.2-0.1-0.2-0.2-0.2s-0.7,0.6-1.2,1s-0.7,0.4-0.7,0.6c0,0.4,0.8,0,0.8,1L61.5,55L61.5,55z"/>
<path class="st0" d="M75,54.3c0,1.7,0,1.8-0.8,2.1c-0.2,0.1-0.5,0.1-0.5,0.2s0.1,0.2,0.3,0.2c0.5,0,0.8-0.1,1.6-0.1s0.9,0.1,1.4,0.1
	c0.2,0,0.4,0,0.4-0.2s-0.3-0.2-0.4-0.2c-0.6-0.1-0.8-0.1-0.8-0.4v-4.2c0-0.6,0.7-1.2,1.8-1.2c1.7,0,1.8,1,1.8,1.6v2.5
	c0,0.8,0,1.7-0.6,1.8s-0.8,0.1-0.8,0.3s0.2,0.1,0.3,0.1s1.3-0.1,1.6-0.1s1.4,0.1,1.6,0.1s0.3,0,0.3-0.2s-0.5-0.1-0.8-0.3
	c-0.2-0.1-0.4-0.3-0.3-0.5V52c0.1-1.3-1-2.4-2.3-2.5c-0.1,0-0.1,0-0.2,0c-0.9,0.1-1.7,0.5-2.3,1.2c-0.5-0.7-1.3-1.1-2.2-1.2
	c-0.9-0.1-1.8,0.3-2.4,1.1V50c0,0,0-0.4-0.2-0.4c-0.6,0.3-1.2,0.6-1.8,1c-0.1,0-0.1,0.1-0.1,0.2c0,0.2,0.7,0.3,0.7,0.8V54
	c0,1.5,0,2.3-0.8,2.4c-0.2,0-0.5,0-0.5,0.2s0.2,0.2,0.2,0.2c0.4,0,0.7-0.1,1.5-0.1s1,0.1,1.5,0.1s0.4-0.1,0.4-0.2s-0.2-0.1-0.4-0.2
	c-0.8-0.2-0.8-0.3-0.8-1.9c0-0.7,0.1-1.5,0.1-2.2c0-0.9,0.3-1.8,1.9-1.8s1.6,1,1.6,1.3V54.3z"/>
<path class="st0" d="M88.3,52.5c0.3,0,0.4-0.1,0.4-0.4c-0.1-1.5-1.3-2.6-2.8-2.5c-2.2,0-3.3,2.1-3.3,3.8c0,2.2,1.1,3.7,3.1,3.7
	c1.1,0.1,2.1-0.5,2.6-1.5c0-0.1-0.1-0.1-0.2-0.1c0,0,0,0,0,0c-0.3,0-0.3,0.7-1.7,0.7c-2.2,0-2.6-1.5-2.6-3c0-0.2,0-0.4,0-0.6
	L88.3,52.5z M85.7,52c-1.5,0-1.6,0-1.6-0.2c0.2-1,1-1.8,2.1-1.8c0.7-0.1,1.3,0.4,1.3,1.1c0,0,0,0,0,0C87.5,51.8,87.3,52,85.7,52
	L85.7,52z"/>
<path class="st0" d="M90.4,55c0,0.9-0.2,1.2-0.7,1.3c-0.1,0-0.3,0.1-0.3,0.2s0.4,0.2,0.6,0.2c0.4,0,0.7-0.1,1.3-0.1s1.1,0.1,1.3,0.1
	l0,0c0.2,0,0.4,0,0.4-0.2s-0.3-0.2-0.5-0.2c-0.8-0.1-0.8-0.5-0.8-1.1v-2.8c0-0.4,0-0.8,0-1.3c0.5-0.6,1.2-0.9,2-0.8
	c1.4,0,1.5,1.2,1.5,2v3c0,1-0.4,1-0.9,1.1c-0.1,0-0.2,0.1-0.2,0.2s0.1,0.2,0.4,0.2c0.4,0,0.8-0.1,1.3-0.1c0.4,0,0.9,0.1,1.4,0.1
	c0.2,0,0.4,0,0.4-0.2s-0.4-0.2-0.6-0.2c-0.5-0.1-0.5-0.4-0.5-0.8v-3.4c0-0.8,0-2.6-2.4-2.6c-0.9,0-1.7,0.4-2.3,0.9v-0.9
	c0-0.2-0.1-0.2-0.2-0.2s-0.7,0.6-1.2,1s-0.7,0.4-0.7,0.6c0,0.4,0.8,0,0.8,1L90.4,55L90.4,55z"/>
<path class="st0" d="M102.7,50.7c0.3,0,0.3-0.2,0.3-0.4s-0.2-0.4-0.3-0.4h-2c-0.3,0-0.3-0.1-0.3-0.2V49c0-0.2,0-0.3-0.2-0.3
	s-0.1,0.3-0.8,1.1c-0.4,0.5-1.3,0.7-1.3,0.9c0,0.1,0.1,0.2,0.2,0.2l0,0h0.4c0.3,0,0.4,0,0.4,0.3c0,1.4,0,2.7,0,3.9s0.6,1.9,2,1.9
	s1.8-0.6,1.8-0.8s-0.1-0.2-0.2-0.2c-0.4,0-0.4,0.2-1.1,0.2c-0.9,0-1.2-0.4-1.2-1.2c0-1,0-2.5,0-3.5c0-0.6,0.1-0.7,0.6-0.7
	L102.7,50.7z"/>
<path class="st0" d="M108.6,51.3c0-0.5,0-1.6-1.7-1.6c-1.5,0-2.8,0.9-3.4,2.2c0,0.2,0.1,0.4,0.4,0.4c1.2,0,0.5-2.1,2.4-2.1
	c1.1,0,1.2,0.7,1.2,1.8c0,0.2,0,0.4-0.1,0.5c-0.5,0.1-0.9,0.3-1.3,0.5c-0.2,0-2.5,0.7-2.5,2.6c0,0.7,0.5,1.3,1.2,1.3
	c0.1,0,0.1,0,0.2,0c0.9,0,1.7-0.4,2.3-1c0.3,0.5,0.8,0.8,1.4,0.8c0.7,0,1.3-0.4,1.5-1.1c0-0.1-0.1-0.2-0.2-0.2
	c-0.3,0-0.3,0.3-0.8,0.3c-0.3,0-0.5-0.2-0.6-0.4c0-0.1,0-0.1,0-0.2L108.6,51.3L108.6,51.3z M107.4,54.5c0,0.8-0.6,1.6-1.5,1.6
	c0,0,0,0-0.1,0c-0.6,0-1-0.4-1-1c0-1.6,2.2-2.1,2.3-2.1s0.2,0.1,0.2,0.6L107.4,54.5L107.4,54.5z"/>
<path class="st0" d="M112.8,46.8c0-0.5,0-0.9,0-1.3c0-0.1,0-0.4-0.2-0.4c-0.1,0-0.2,0-0.4,0.1l-1.5,0.5c-0.1,0-0.1,0.1-0.1,0.2
	c0,0.1,0.9,0.3,0.9,0.7V55c0,1.1-0.3,1.1-1,1.3c-0.1,0-0.4,0-0.4,0.2c0,0.1,0.1,0.2,0.2,0.2c0.6,0,1.2-0.1,1.9-0.1s1.1,0.1,1.6,0.1
	c0.1,0,0.2-0.1,0.2-0.2c0,0,0,0,0,0c0-0.2-0.1-0.2-0.3-0.2c-0.8-0.2-1.1-0.3-1.1-0.7L112.8,46.8L112.8,46.8z"/>
<path class="st0" d="M48.8,65.2c0,3.3,2.8,5.3,6,5.3c1.1,0.1,2.1-0.2,3-0.8c0.2-0.5,0.3-1,0.3-1.6c0-0.1-0.1-0.1-0.2-0.1
	s-0.3,0.3-0.7,0.8c-0.6,0.8-1.5,1.2-2.5,1.2c-2.7,0-4.1-2.3-4.1-4.7c0-3.1,2.1-5.1,4.2-5.1s2.5,1.6,3,1.6c0.1,0,0.1,0,0.1-0.2
	c0-1.4,0-1.5-1.5-1.8c-0.5-0.1-1.1-0.2-1.6-0.2C50.8,59.6,48.8,62.4,48.8,65.2L48.8,65.2z"/>
<path class="st0" d="M63.5,65.1c0-0.4,0-1.5-1.6-1.5c-1.3,0-2.6,0.8-3.1,2c0,0.2,0,0.4,0.4,0.4c1.1,0,0.5-2,2.2-2
	c1,0,1.1,0.7,1.1,1.7c0,0.2,0,0.3-0.1,0.5c-0.4,0.1-0.8,0.3-1.2,0.4c-0.1,0-2.3,0.7-2.3,2.4c0,0.7,0.5,1.2,1.1,1.2
	c0.1,0,0.1,0,0.2,0c0.8,0,1.6-0.3,2.1-0.9c0.3,0.5,0.8,0.7,1.3,0.8c0.6,0,1.2-0.4,1.4-1c0-0.1-0.1-0.2-0.2-0.2
	c-0.3,0-0.3,0.3-0.7,0.3c-0.3,0-0.5-0.1-0.5-0.4c0,0,0-0.1,0-0.1L63.5,65.1L63.5,65.1z M62.5,68.1c0,0.8-0.6,1.4-1.4,1.5
	c0,0-0.1,0-0.1,0c-0.5,0-0.9-0.4-0.9-0.9c0,0,0,0,0,0c0-1.5,2-1.9,2.1-1.9s0.2,0,0.2,0.6L62.5,68.1L62.5,68.1z"/>
<path class="st0" d="M67.5,65.7c0-0.5,0.2-1.1,0.8-1.1c0.3,0,0.7,0.4,1.1,0.4c0.4,0,0.8-0.3,0.9-0.7c0,0,0,0,0-0.1
	c0-0.6-0.6-0.8-1-0.8c-0.8,0-1.5,0.9-1.7,0.9s-0.1-0.2-0.1-0.4v-0.5c0-0.1-0.1-0.2-0.2-0.2c0,0,0,0,0,0c-0.2,0-0.5,0.5-0.9,0.9
	c-0.5,0.4-0.7,0.3-0.7,0.5c0,0.3,0.7,0.2,0.7,1.2v2.6c0,1.2-0.3,1.2-0.9,1.4c-0.1,0-0.1,0.1-0.1,0.2c0,0.2,0.2,0.2,0.4,0.2
	c0.5,0,1-0.1,1.6-0.1s1,0.1,1.5,0.1c0.2,0,0.4,0,0.4-0.2c0-0.1-0.1-0.2-0.2-0.2c0,0,0,0,0,0c-1.2,0-1.4-0.3-1.4-0.8L67.5,65.7
	L67.5,65.7z"/>
<path class="st0" d="M76,66.2c0.3,0,0.3-0.1,0.3-0.4c-0.1-1.4-1.2-2.4-2.6-2.4c-2.1,0-3,2-3,3.5c0,2.1,1,3.4,2.9,3.4
	c1,0,1.9-0.5,2.3-1.4c0-0.1-0.1-0.1-0.1-0.1c0,0,0,0,0,0c-0.3,0-0.3,0.7-1.6,0.7c-2.1,0-2.4-1.4-2.4-2.8c0-0.2,0-0.4,0-0.6H76z
	 M73.5,65.8c-1.4,0-1.5,0-1.5-0.2c0.2-1,1-1.7,1.9-1.7c0.6-0.1,1.2,0.4,1.2,1C75.2,65.5,75,65.7,73.5,65.8L73.5,65.8z"/>
<path class="st0" d="M82.3,66.2c0.3,0,0.3-0.1,0.3-0.4c-0.1-1.4-1.2-2.4-2.6-2.4c-2.1,0-3,2-3,3.5c0,2.1,1.1,3.4,2.9,3.4
	c1,0.1,2-0.5,2.4-1.3c0-0.1-0.1-0.1-0.1-0.1c0,0,0,0,0,0c-0.3,0-0.3,0.7-1.6,0.7c-2.1,0-2.4-1.4-2.4-2.8c0-0.2,0-0.4,0-0.6
	L82.3,66.2z M79.9,65.8c-1.4,0-1.5,0-1.5-0.2c0.1-1,1-1.7,1.9-1.7c0.6-0.1,1.2,0.4,1.2,1C81.6,65.5,81.3,65.7,79.9,65.8L79.9,65.8z"
	/>
<path class="st0" d="M85.7,65.7c0-0.5,0.2-1.1,0.8-1.1c0.3,0,0.7,0.4,1.1,0.4c0.4,0,0.8-0.3,0.9-0.7c0,0,0,0,0-0.1
	c0-0.6-0.6-0.8-1-0.8c-0.8,0-1.5,0.9-1.7,0.9s-0.1-0.2-0.1-0.4v-0.5c0-0.1-0.1-0.2-0.2-0.2c0,0,0,0,0,0c-0.2,0-0.5,0.5-0.9,0.9
	c-0.5,0.4-0.7,0.3-0.7,0.5c0,0.3,0.7,0.2,0.7,1.2v2.6c0,1.2-0.3,1.2-0.9,1.4c-0.1,0-0.1,0.1-0.1,0.2c0,0.2,0.3,0.2,0.4,0.2
	c0.5,0,1-0.1,1.6-0.1s1,0.1,1.5,0.1c0.2,0,0.4,0,0.4-0.2c0-0.1-0.1-0.2-0.2-0.2c0,0,0,0,0,0c-1.2,0-1.4-0.3-1.4-0.8L85.7,65.7
	L85.7,65.7z"/>
<path class="st0" d="M88.9,69.8c0,0.6,1.6,0.7,2.1,0.7c1.8,0,2.3-1.1,2.3-2c0-1.7-3.3-2.2-3.3-3.4c0-0.6,0.4-1,1-1c0,0,0.1,0,0.1,0
	c1.3,0,1.2,1.3,1.7,1.3c0.1,0,0.2-0.1,0.2-0.8s0-1-1.8-1c-1-0.1-2,0.6-2.1,1.6c0,0.1,0,0.2,0,0.2c0,2,3.2,1.9,3.2,3.4
	c0,0.8-0.7,1.1-1.3,1.1c-0.7-0.1-1.2-0.5-1.5-1.1c-0.1-0.2-0.1-0.4-0.3-0.4s-0.2,0.2-0.2,0.5L88.9,69.8L88.9,69.8z"/>
<path class="st0" d="M98.2,65c-0.1,2.9,2.2,5.3,5.1,5.4c0.1,0,0.3,0,0.4,0c3,0,5.4-2.5,5.3-5.5c0-3-2.5-5.4-5.5-5.3
	C100.6,59.6,98.3,62,98.2,65z M100,65c0-3.5,1.9-4.9,3.7-4.9c2.7,0,3.9,2.4,3.9,4.6c0,0.8-0.2,5.2-3.8,5.2
	C102.5,69.9,100,68.9,100,65z"/>
<path class="st0" d="M112.5,65.7c0-0.5,0.2-1.1,0.8-1.1c0.3,0,0.7,0.4,1.1,0.4c0.4,0,0.8-0.3,0.9-0.7c0,0,0,0,0-0.1
	c0-0.6-0.6-0.8-1-0.8c-0.8,0-1.5,0.9-1.7,0.9s-0.1-0.2-0.1-0.4v-0.5c0-0.1-0.1-0.2-0.2-0.2c0,0,0,0,0,0c-0.2,0-0.4,0.5-0.9,0.9
	c-0.3,0.3-0.7,0.3-0.7,0.5c0,0.3,0.7,0.2,0.7,1.2v2.6c0,1.2-0.3,1.2-0.9,1.4c-0.1,0-0.1,0.1-0.1,0.2c0,0.2,0.2,0.2,0.4,0.2
	c0.5,0,1-0.1,1.6-0.1s1,0.1,1.5,0.1c0.2,0,0.4,0,0.4-0.2c0-0.1-0.1-0.2-0.2-0.2c0,0,0,0,0,0c-1.2,0-1.4-0.3-1.4-0.8L112.5,65.7
	L112.5,65.7z"/>
<path class="st0" d="M122.4,65c0.2,0,0.3,0,0.3-0.3s0-0.4-0.1-0.4h-0.7c-0.6,0-1.1-0.1-1.6-0.4c-0.4-0.2-0.9-0.4-1.4-0.4
	c-1.3-0.1-2.4,0.8-2.5,2.1c0,0.1,0,0.1,0,0.2c0,0.9,0.5,1.7,1.3,2.2c-0.3,0-1.8,0.4-1.8,0.9s1,1.1,1.3,1.3c-0.9,0.4-2.2,0.9-2.2,2
	c0,0.7,0.6,1.6,2.7,1.6c1,0,4.4-0.5,4.4-2.7c0-1.6-1.4-1.8-3.1-1.8s-1.9-0.1-1.9-0.5c0-0.7,1.3-0.7,1.7-0.7c1.3,0.1,2.5-0.9,2.5-2.2
	c0-0.1,0-0.2,0-0.2c0-0.7,0.1-0.8,0.2-0.8L122.4,65z M116.1,72c0-0.4,0.8-1.2,1.3-1.6c0.3-0.1,0.7-0.1,1.1-0.1c1.8,0,3,0.1,3,1.1
	c0,0.5-0.6,1.8-3.5,1.8C117,73.3,116.1,72.9,116.1,72L116.1,72z M120.4,65.9c0,1.1-0.3,2-1.4,2s-1.4-1.4-1.4-2.2s0.2-1.9,1.4-1.9
	S120.4,65.1,120.4,65.9L120.4,65.9z"/>
<path class="st0" d="M128.2,65.1c0-0.4,0-1.5-1.6-1.5c-1.3,0-2.6,0.8-3.1,2c0,0.2,0,0.4,0.4,0.4c1.1,0,0.5-2,2.2-2
	c1,0,1.1,0.7,1.1,1.7c0,0.2,0,0.3-0.1,0.5c-0.4,0.1-0.8,0.3-1.2,0.4c-0.1,0-2.3,0.7-2.3,2.4c0,0.7,0.5,1.2,1.1,1.2
	c0.1,0,0.1,0,0.2,0c0.8,0,1.6-0.3,2.1-0.9c0.3,0.5,0.8,0.7,1.3,0.8c0.6,0,1.2-0.4,1.4-1c0-0.1-0.1-0.2-0.2-0.2
	c-0.3,0-0.3,0.3-0.7,0.3c-0.3,0-0.5-0.1-0.5-0.4c0,0,0-0.1,0-0.1L128.2,65.1L128.2,65.1z M127.1,68.1c0,0.8-0.6,1.5-1.4,1.5
	c0,0,0,0-0.1,0c-0.5,0-0.9-0.4-0.9-0.9c0,0,0,0,0,0c0-1.5,2-1.9,2.1-1.9s0.2,0,0.2,0.6C127.1,67.3,127.1,68.1,127.1,68.1z"/>
<path class="st0" d="M131,68.6c0,0.8-0.2,1.2-0.6,1.2c-0.1,0-0.2,0.1-0.2,0.2s0.4,0.2,0.5,0.2c0.3,0,0.7-0.1,1.2-0.1s1,0.1,1.2,0.1
	l0,0c0.2,0,0.4,0,0.4-0.2s-0.3-0.2-0.5-0.2c-0.7-0.1-0.8-0.4-0.8-1v-2.6c0-0.4,0-0.8,0-1.2c0.5-0.5,1.2-0.8,1.9-0.8
	c1.3,0,1.4,1.1,1.4,1.8v2.8c0,0.9-0.4,0.9-0.8,1c-0.1,0-0.2,0.1-0.2,0.2s0.1,0.2,0.3,0.2c0.4,0,0.7-0.1,1.2-0.1s0.9,0.1,1.3,0.1
	c0.2,0,0.4,0,0.4-0.2s-0.4-0.2-0.6-0.2c-0.4-0.1-0.5-0.3-0.5-0.7v-3.1c0-0.8,0-2.4-2.3-2.4c-0.8,0-1.6,0.3-2.1,0.9v-0.9
	c0-0.2-0.1-0.2-0.2-0.2s-0.7,0.5-1.1,0.9c-0.4,0.4-0.6,0.4-0.6,0.6c0,0.3,0.7,0,0.7,0.9L131,68.6L131,68.6z"/>
<path class="st0" d="M140.7,64.5c0-0.3,0.1-0.6,0.1-0.9c0-0.1,0-0.1-0.1-0.1c0,0,0,0,0,0c-0.1,0-0.2,0.1-1,0.7
	c-0.4,0.3-0.9,0.2-0.9,0.4s0.8,0.1,0.8,0.7v3.6c0,0.7-0.3,0.8-0.9,0.9c-0.2,0-0.3,0.2-0.3,0.2s0.2,0.2,0.3,0.2
	c0.5,0,0.9-0.1,1.4-0.1s0.9,0.1,1.3,0.1c0.1,0,0.4,0,0.4-0.2s-0.2-0.2-0.4-0.2c-0.4-0.2-0.7-0.1-0.7-0.6L140.7,64.5L140.7,64.5z
	 M140.1,59.8c-0.4,0-0.7,0.3-0.7,0.7c0,0.4,0.3,0.7,0.7,0.7s0.7-0.3,0.7-0.7C140.8,60.1,140.5,59.8,140.1,59.8z"/>
<path class="st0" d="M142.8,69.7c0,0.1-0.1,0.2-0.1,0.2c0,0.2,0.2,0.2,0.4,0.2c0.9,0,2,0,3.1,0c0.2,0,1,0,1.6,0c0.3,0,0.4,0,0.4-0.5
	s0.1-0.9,0.1-1s-0.1-0.3-0.2-0.3h-0.1c-0.2,0-0.3,0.9-0.6,1c-0.1,0-0.3,0.1-0.4,0.1l-2,0.2h-0.2c-0.1,0-0.1-0.1-0.1-0.1c0,0,0,0,0,0
	c0-0.1,0-0.2,0.1-0.2l3.5-4.8c0-0.1,0.1-0.1,0.1-0.2c0-0.1-0.1-0.3-0.3-0.3l0,0L146,64c-2,0-2.2,0-2.2-0.2c0-0.4-0.1-0.5-0.2-0.5
	s-0.2,0.2-0.3,0.3l-0.4,1.4c0,0.1,0,0.1,0,0.2c0,0.1,0.1,0.2,0.1,0.2c0,0,0,0,0,0c0.2,0,0.6-0.6,1.1-0.7c0.4-0.1,0.9-0.1,1.3-0.1
	c0.8,0,1.1,0,1.1,0.2c0,0.1-0.1,0.2-0.1,0.2L142.8,69.7L142.8,69.7z"/>
<path class="st0" d="M153.7,65.1c0-0.4,0-1.5-1.6-1.5c-1.3,0-2.6,0.8-3.1,2c0,0.2,0.1,0.4,0.4,0.4c1.1,0,0.5-2,2.2-2
	c1,0,1.1,0.7,1.1,1.7c0,0.2,0,0.3-0.1,0.5c-0.4,0.1-0.8,0.3-1.2,0.4c-0.1,0-2.3,0.7-2.3,2.4c0,0.7,0.5,1.2,1.1,1.2
	c0.1,0,0.1,0,0.2,0c0.8,0,1.6-0.3,2.1-0.9c0.3,0.5,0.8,0.7,1.3,0.8c0.6,0,1.2-0.4,1.4-1c0-0.1-0.1-0.2-0.2-0.2
	c-0.2,0-0.2,0.3-0.7,0.3c-0.3,0-0.5-0.1-0.5-0.4c0,0,0-0.1,0-0.1L153.7,65.1L153.7,65.1z M152.6,68.1c0,0.8-0.6,1.5-1.4,1.5
	c0,0,0,0-0.1,0c-0.5,0-0.9-0.4-0.9-0.9c0,0,0,0,0,0c0-1.5,2-1.9,2.1-1.9s0.2,0,0.2,0.6C152.6,67.3,152.6,68.1,152.6,68.1z"/>
<path class="st0" d="M159.7,64.5c0.3,0,0.3-0.2,0.3-0.4s-0.1-0.4-0.3-0.4h-1.8c-0.2,0-0.3-0.1-0.3-0.2V63c0-0.2,0-0.3-0.2-0.3
	s-0.1,0.3-0.8,1c-0.4,0.5-1.2,0.6-1.2,0.9c0,0.1,0.1,0.1,0.1,0.1h0.4c0.3,0,0.4,0,0.4,0.3c0,1.3,0,2.5,0,3.6s0.6,1.7,1.9,1.7
	s1.7-0.6,1.7-0.8s-0.1-0.2-0.2-0.2c-0.3,0-0.3,0.2-1,0.2c-0.9,0-1.1-0.4-1.1-1.1c0-0.9,0.1-2.3,0.1-3.2c0-0.5,0.1-0.7,0.5-0.7
	L159.7,64.5z"/>
<path class="st0" d="M163.3,64.5c0-0.3,0.1-0.6,0.1-0.9c0-0.1-0.1-0.1-0.1-0.1s-0.2,0.1-1,0.7c-0.4,0.3-0.9,0.2-0.9,0.4
	s0.8,0.1,0.8,0.7v3.6c0,0.7-0.3,0.8-0.9,0.9c-0.2,0-0.3,0.2-0.3,0.2s0.2,0.2,0.3,0.2c0.5,0,0.9-0.1,1.4-0.1s0.9,0.1,1.3,0.1
	c0.1,0,0.4,0,0.4-0.2s-0.3-0.2-0.4-0.2c-0.4-0.2-0.7-0.1-0.7-0.6L163.3,64.5L163.3,64.5z M162.7,59.8c-0.4,0-0.7,0.3-0.7,0.7
	c0,0.4,0.3,0.7,0.7,0.7c0.4,0,0.7-0.3,0.7-0.7C163.4,60.1,163.1,59.8,162.7,59.8z"/>
<path class="st0" d="M168.6,70c-1.3,0-2-1.7-2-3c0-1.9,0.8-3.2,2-3.2s2,1.7,2,3C170.6,68.7,169.8,70,168.6,70L168.6,70z M168.6,63.5
	c-1.8,0-3.3,1.4-3.3,3.2c0,0.1,0,0.3,0,0.4c-0.2,1.7,1.1,3.3,2.8,3.4c0.2,0,0.3,0,0.5,0c1.8,0.1,3.3-1.3,3.3-3.1c0-0.1,0-0.3,0-0.4
	C171.9,65.1,170.5,63.6,168.6,63.5L168.6,63.5z"/>
<path class="st0" d="M173.6,68.6c0,0.8-0.2,1.2-0.6,1.2c-0.1,0-0.2,0.1-0.2,0.2s0.4,0.2,0.5,0.2c0.3,0,0.7-0.1,1.2-0.1
	s1,0.1,1.2,0.1l0,0c0.2,0,0.4,0,0.4-0.2s-0.3-0.2-0.5-0.2c-0.7-0.1-0.8-0.4-0.8-1v-2.6c0-0.4,0-0.8,0-1.2c0.5-0.5,1.1-0.8,1.8-0.8
	c1.3,0,1.4,1.1,1.4,1.8v2.8c0,0.9-0.4,0.9-0.8,1c-0.1,0-0.2,0.1-0.2,0.2s0.1,0.2,0.3,0.2c0.4,0,0.7-0.1,1.2-0.1s0.9,0.1,1.3,0.1
	c0.2,0,0.4,0,0.4-0.2s-0.4-0.2-0.6-0.2c-0.4-0.1-0.5-0.3-0.5-0.7v-3.1c0-0.8,0-2.4-2.3-2.4c-0.8,0-1.6,0.3-2.1,0.9v-0.9
	c0-0.2-0.1-0.2-0.2-0.2s-0.7,0.5-1.1,0.9c-0.4,0.4-0.6,0.4-0.6,0.6c0,0.3,0.7,0,0.7,0.9L173.6,68.6L173.6,68.6z"/>
<path class="st0" d="M5,61.1c0,0.5,0,0.9-0.1,1.4c0,0.3-0.4,0.2-0.4,0.3S4.7,63,5,63.1c0.4,0.1,0.8,0.3,1.1,0.4c0.1,0,0.1,0,0.1-0.1
	c0,0,0,0,0,0c0-0.2-0.9-0.5-0.9-1.4s0-0.8,0.4-0.8h3.7c0.6,0,0.7,0.1,0.8,0.5c0.1,0.2,0.1,0.5,0.2,0.5s0.1-0.1,0.1-0.2
	c0-0.5,0-0.9,0-1.3s0-0.9,0-1.2c0-0.1,0-0.2-0.1-0.2s-0.1,0.2-0.2,0.5c0,0.4-0.1,0.5-0.6,0.5H5.9c-0.6,0-0.6-0.1-0.6-0.4
	c0-0.9,0.2-1.3,0.3-1.3s0.6-0.1,0.6-0.3s-0.5-0.2-0.9-0.2s-0.7,0-0.7,0.1s0.4,0.1,0.4,0.4C5,58.8,5,58.9,5,59V61.1L5,61.1z"/>
<path class="st0" d="M4.8,56.4c-0.2,0-0.3,0-0.3,0.2c0.1,0.3,0.2,0.6,0.3,0.9c0,0,0.1,0.1,0.1,0.1s0.2-0.5,0.3-0.5h4.5
	c0.2,0,0.4,0.1,0.5,0.4c0,0,0,0,0,0.1c0,0.1,0.1,0.2,0.1,0.2s0.1-0.1,0.1-0.2c0-0.3,0-0.6,0-0.8s0-0.6,0-0.8s0-0.2-0.1-0.2
	s-0.1,0.1-0.1,0.3s-0.1,0.5-0.4,0.5h-2c-0.5-0.1-0.8-0.5-0.8-1c0-0.5,0.3-0.8,0.7-0.8h1.9c0.3,0,0.5,0.1,0.6,0.3s0.1,0.3,0.1,0.3
	s0.1-0.1,0.1-0.1c0-0.2,0-0.5,0-0.7s0-0.5,0-0.7s0-0.2-0.1-0.2s-0.1,0.1-0.1,0.2s-0.1,0.3-0.5,0.3H8c-0.6-0.1-1.2,0.3-1.2,0.9
	c0,0.1,0,0.1,0,0.2c0,0.5,0.2,1,0.6,1.3c0,0-0.1,0-0.1,0L4.8,56.4z"/>
<path class="st0" d="M8.3,50c0-0.2,0-0.2-0.2-0.2c-0.8,0-1.3,0.7-1.3,1.4c0.1,1,0.9,1.8,1.9,1.7c0,0,0,0,0.1,0
	c1.2,0,1.9-0.6,1.9-1.6c0-0.6-0.3-1.1-0.8-1.3c0,0-0.1,0-0.1,0.1l0,0c0,0.2,0.4,0.2,0.4,0.9c0,1.1-0.8,1.3-1.6,1.3H8.3V50z M8,51.4
	c0,0.8,0,0.8-0.1,0.8C7.4,52.1,7,51.7,7,51.1c0-0.3,0.2-0.7,0.6-0.7C7.9,50.4,8,50.6,8,51.4L8,51.4z"/>
</svg>
